<svg xmlns="http://www.w3.org/2000/svg" width="1080" height="1080" viewBox="0 0 1080 1080">
  <title>Business Concept</title>
  <g>
    <g>
      <path d="M928.361,808.61l20.923,6.662,7.268,5.235-8.573,21.441-2.4-6.807a8.206,8.206,0,0,0-3.51-3.688c-4.228-2.237-17.326-6.235-17.326-6.235Z" fill="#fccead"/>
      <path d="M948.946,815.34c.457-2.486,15.311-.4,16.281.732s-6.829,44.052-8.051,46.644-7.271-2.429-9.116-8.445-3.159-17.926-2.48-19.13,3.19-4.627,4-6.743C951.417,823.568,948.718,816.576,948.946,815.34Z" fill="#191919"/>
    </g>
    <g>
      <path d="M827.637,831l-3.573,21.665-4.132,7.947-22.454-5.389,6.39-3.356a8.211,8.211,0,0,0,3.143-4c1.6-4.507,3.669-18.044,3.669-18.044Z" fill="#fccead"/>
      <path d="M823.948,852.338c2.525.094,2.605,15.094,1.624,16.217s-44.576-.4-47.318-1.237,1.356-7.545,7.042-10.239,17.283-5.712,18.572-5.214,5.039,2.489,7.249,2.981C816.162,855.971,822.691,852.292,823.948,852.338Z" fill="#191919"/>
    </g>
    <path d="M528.325,293.711c-90.545,9.571-185.306-23.431-271.461,5.992-65.511,22.372-115.875,79.766-138.154,145.306s-18.458,138.083,1.73,204.3c11,36.069,26.947,71.066,50.746,100.316,33.985,41.771,82.566,69.911,133.793,86.519s105.312,22.383,159.077,25.43c81.655,4.635,164.719,3.033,243.511-18.9S861.126,776.8,908.148,709.882c29.885-42.538,47.554-92.634,58.284-143.5,13.024-61.746,15.923-127.783-7.358-186.439-15.873-39.987-43.328-74.757-75.942-102.823-48.75-41.956-112.1-70.052-176.271-65.611C641.327,216.04,583.048,252.864,528.325,293.711Z" fill="#fff1eb"/>
    <polygon points="841.884 608.053 804.936 604.312 804.25 620.757 839.541 623.359 841.884 608.053" fill="#fccead"/>
    <path d="M839.541,623.359l2.184-14.276a10.725,10.725,0,0,0-1.307-1.173l-8.928-.9c-2.915,3.462-5.631,7.148-6.913,11.458a16.367,16.367,0,0,0-.628,3.749Z" fill="#ec9d74"/>
    <path d="M864.014,601.087a100.679,100.679,0,0,0-26.888,5.428l-2.966,21.533,17.4,4.85Z" fill="#ea9421"/>
    <g>
      <path d="M233.691,780.947a1.455,1.455,0,0,1-1.432-1.739L294.5,464.146a1.458,1.458,0,0,1,2.861.566L235.12,779.772A1.46,1.46,0,0,1,233.691,780.947Z" fill="#b9a231"/>
      <path d="M269.167,600.37a1.491,1.491,0,0,1-.28-.027c-9.8-1.911-19.612-3.97-29.154-6.124a1.457,1.457,0,1,1,.64-2.843c9.515,2.147,19.3,4.2,29.072,6.106a1.458,1.458,0,0,1-.278,2.888Z" fill="#b9a231"/>
      <path d="M262.133,637.652a1.477,1.477,0,0,1-.3-.031,134.33,134.33,0,0,1-25.969-8.254,1.457,1.457,0,1,1,1.162-2.673,131.319,131.319,0,0,0,25.4,8.075,1.457,1.457,0,0,1-.3,2.883Z" fill="#b9a231"/>
      <path d="M255.611,667.693a1.547,1.547,0,0,1-.3-.03c-9.425-1.961-18.924-4.291-28.231-6.926a1.457,1.457,0,1,1,.794-2.8c9.242,2.615,18.673,4.928,28.032,6.875a1.458,1.458,0,0,1-.3,2.885Z" fill="#b9a231"/>
      <path d="M249.411,701.08a1.432,1.432,0,0,1-.205-.014,241.383,241.383,0,0,1-38.65-8.766,1.458,1.458,0,0,1,.877-2.782,238.182,238.182,0,0,0,38.18,8.661,1.458,1.458,0,0,1-.2,2.9Z" fill="#b9a231"/>
      <path d="M240.951,742.2a1.481,1.481,0,0,1-.315-.034L199.1,733.018a1.458,1.458,0,0,1,.626-2.847l41.542,9.152a1.458,1.458,0,0,1-.312,2.881Z" fill="#b9a231"/>
      <path d="M187.44,774.46a1.505,1.505,0,0,1-.405-.057,1.459,1.459,0,0,1-1-1.805L275.03,464.025a1.458,1.458,0,1,1,2.8.808L188.84,773.406A1.458,1.458,0,0,1,187.44,774.46Z" fill="#b9a231"/>
      <path d="M290.2,493.548a1.523,1.523,0,0,1-.189-.012c-7.149-.931-13.673-2.1-20.8-3.462a1.457,1.457,0,1,1,.55-2.862c7.066,1.355,13.53,2.51,20.623,3.433a1.458,1.458,0,0,1-.187,2.9Z" fill="#b9a231"/>
      <path d="M284.224,523.768a1.466,1.466,0,0,1-.237-.019l-7.091-1.164q-8.1-1.331-16.205-2.656a1.458,1.458,0,1,1,.47-2.877q8.1,1.323,16.207,2.656l7.091,1.164a1.458,1.458,0,0,1-.235,2.9Z" fill="#b9a231"/>
      <path d="M277.448,560.4a1.607,1.607,0,0,1-.194-.013,250.561,250.561,0,0,1-27.168-5.155,1.458,1.458,0,0,1,.7-2.83,248.14,248.14,0,0,0,26.853,5.1,1.457,1.457,0,0,1-.191,2.9Z" fill="#b9a231"/>
    </g>
    <g>
      <path d="M270.9,657.418c-.991.1-5.859.715-11.908,1.5-.991.131-2.011.262-3.046.393-11.7,1.516-25.928,3.382-25.928,3.382l-.452-5.67-.51-6.34-1.75-21.746,14.648-3.6,3.455,21.032.291,1.778s6.428,1.443,11.922,2.7c.991.233,1.939.452,2.828.656.656.146,1.253.277,1.807.408.219.044.437.1.641.146C267.851,653.206,273.856,657.112,270.9,657.418Z" fill="#fccead"/>
      <path d="M274.4,657.8c-.364.452-7.477,2.026-15.916,3.7-1.02.2-2.04.394-3.09.6-11.485,2.23-24.121,4.431-25.273,4.212-1.676-.306-1.224-6.733-.553-9.284v-.015c.16-.67.349-1.064.51-1.02a33.081,33.081,0,0,0,10.362,1.909c5.437.219,13.03-.32,15.989-1.064a4.12,4.12,0,0,0,1.064-.393,15.308,15.308,0,0,0,2.463-2.39,12.352,12.352,0,0,1,2.3-2.143,3.93,3.93,0,0,1,.481-.262c1.734-.729,6.121.889,8.381,2.157C273.36,655.057,275.269,656.69,274.4,657.8Z" fill="#601111"/>
    </g>
    <polygon points="245.406 646.371 229.053 650.685 227.303 628.939 241.951 625.339 245.406 646.371" fill="#ec9d74"/>
    <path d="M260.54,651.088l-.589,2.964-.962,4.868-.559,2.852c-1.021.2-2.048.428-3.1.632l.611-3.091.481-2.478,1.276-6.416C258.691,650.652,259.651,650.884,260.54,651.088Z" fill="#b9a231"/>
    <path d="M234.735,534.417c5.011,12.147,5.831,25.549,6.661,38.657q2.145,33.916,4.924,67.79a148.535,148.535,0,0,1-21.787,10.381,203.13,203.13,0,0,1-9.363-61.24c.026-17.074,2.354-34.578,10.432-49.621C227.12,537.562,228.906,534.755,234.735,534.417Z" fill="#fbb03a"/>
    <path d="M217.169,618.479a202.9,202.9,0,0,0,7.364,32.766q2.906-1.109,5.757-2.33a48.942,48.942,0,0,0,2.951-6.351,203.976,203.976,0,0,0,10.445-35.784q-1.224-16.846-2.29-33.706-.175-2.742-.361-5.492c-1.155,1.227-2.381,2.71-3.6,4.234-8.151,10.2-12.554,22.818-16.684,35.209C219.5,610.786,218.255,614.611,217.169,618.479Z" fill="#ea9421"/>
    <path d="M674.8,493.664a21.221,21.221,0,0,0-26.665-22.374c-6.193,1.668-11.253,6-16.316,9.936a108.928,108.928,0,0,1-25.45,15.3c-12.192,4.971-25.506,6.861-37.5,12.282-2.911,1.324-5.838,2.931-7.685,5.544-2.214,3.125-2.534,7.205-2.354,11.031.476,9.981,4.145,20.145,11.629,26.761,4.742,4.188,10.738,6.751,16.873,8.3a62.292,62.292,0,0,0,47.736-7.563c14.669-9.218,24.783-24.175,32.658-39.6C671.1,506.663,674.266,499.675,674.8,493.664Z" fill="#1f161c"/>
    <path d="M672.957,501.493a21.191,21.191,0,0,0-8.041-3.292c-4.953-.922-9.879-.194-10.888,2.324-3.628,9.053-7.534,18.494-15.039,24.721-4.633,3.853-10.341,6.188-16.109,7.935a97.09,97.09,0,0,1-32.987,4c-7.97-.418-16.229-1.78-23.753.889a17.493,17.493,0,0,0-4.061,2.073,32.712,32.712,0,0,0,8.381,11.994c4.742,4.188,10.738,6.751,16.873,8.3a62.292,62.292,0,0,0,47.736-7.563c14.669-9.218,24.783-24.175,32.658-39.6A96.6,96.6,0,0,0,672.957,501.493Z"/>
    <path d="M700.375,615.18l-61.914,5.7c-.729-15.056-3.557-52.469-1.706-67.438.758-6.121,1.793-12.4,5.131-17.592a12.182,12.182,0,0,1,4.853-4.605,13.189,13.189,0,0,1,5.786-.875,31.57,31.57,0,0,1,16.339,5.189l4.9,12.359,7.681,19.429Z" fill="#b9a231"/>
    <path d="M327.373,379.892A752.928,752.928,0,0,0,266.38,448.96l12.627,8.307,49.6-65.032Z" fill="#eab896"/>
    <path d="M326.65,379.742A49.11,49.11,0,0,1,334.9,358.58a2.983,2.983,0,0,1,1.169-1.135,1.081,1.081,0,0,1,1.413.434,1.537,1.537,0,0,1,.057.689l-1.143,17.56,6.128-1.836c-2.525,8.046-9.292,13.963-16.055,19C324.976,389.872,325.81,385.807,326.65,379.742Z" fill="#eab896"/>
    <path d="M571.341,354.337c-.84,0-1.658.078-2.488.128l8.351-76.886-203.566-22.1a36.084,36.084,0,0,0-39.764,31.977L312.749,482.026l74.465,8.085c-.025-.584-.089-1.156-.089-1.74a43.509,43.509,0,1,1,85.554,11.015l79.5,8.634,7.417-68.312a43.5,43.5,0,1,0,11.745-85.371Z" fill="#ea9421"/>
    <g>
      <path d="M242.418,696.537c-2.915-.568-40.664-6.689-40.664-6.689l4.212-19.618,2.886-13.5,15.07.773-1.894,14.633-1.079,8.279s10.683,6.019,15.362,8.686C240.712,691.626,245.347,697.091,242.418,696.537Z" fill="#fccead"/>
      <path d="M203.73,683.447a33.1,33.1,0,0,0,9.386,4.807c5.994,2.054,15.074,3.993,16.75,3.5s4.544-2.878,6.4-3.082,5.608,2.612,7.4,4.466,3.156,3.966,2,4.774-42.943-3.594-44.855-4.574S203.044,682.992,203.73,683.447Z" fill="#601111"/>
    </g>
    <path d="M680.947,515.006a277.218,277.218,0,0,1,36.371-20.645l6.751,9.327-31.528,22.341-9.472,1.569Z" fill="#fccead"/>
    <path d="M683.245,527.572l9.3-1.543,2.234-1.586a25.755,25.755,0,0,0-1.643-6.739c-1.014-2.835-2.186-5.6-3.432-8.346-2.615,1.621-5.193,3.3-7.751,5-.193,1.4-.342,2.812-.4,4.216l1.43,8.482C683.062,527.23,683.151,527.4,683.245,527.572Z" fill="#ec9d74"/>
    <path d="M656.849,525c8.232-5.644,18.328-9.986,27.024-14.884,2.43,6.549,2.817,12.321,4.38,19.132a1.61,1.61,0,0,1-1.029,2.246c-5.57,2.947-11.25,5.927-17.433,7.156-4.29.856-9.1.729-12.579-1.924S652.4,528.052,656.849,525Z" fill="#a58c25"/>
    <g>
      <path d="M287.026,787.361h-.01a1.458,1.458,0,0,1-1.448-1.468l2.141-322.825a1.458,1.458,0,0,1,1.457-1.448h.01a1.459,1.459,0,0,1,1.448,1.467l-2.141,322.826A1.459,1.459,0,0,1,287.026,787.361Z" fill="#a58e2d"/>
      <path d="M310.481,788.094h-.01a1.458,1.458,0,0,1-1.448-1.467l-2.467-323.559a1.459,1.459,0,0,1,1.458-1.448h.01a1.458,1.458,0,0,1,1.447,1.467l2.467,323.56A1.457,1.457,0,0,1,310.481,788.094Z" fill="#a58e2d"/>
      <path d="M307.611,499.947a1.5,1.5,0,0,1-.175-.01c-5.922-.709-11.956-1.17-17.79-1.616a1.458,1.458,0,0,1-1.342-1.565,1.441,1.441,0,0,1,1.564-1.342c5.865.448,11.93.912,17.915,1.629a1.457,1.457,0,0,1-.172,2.9Z" fill="#a58e2d"/>
      <path d="M307.949,539.875c-.05,0-.1,0-.15-.008l-17.957-2.018a1.457,1.457,0,1,1,.3-2.9l18.276,2.086a1.483,1.483,0,0,1,.926,1.708A1.44,1.44,0,0,1,307.949,539.875Z" fill="#a58e2d"/>
      <path d="M307.886,580.716a1.45,1.45,0,0,1-.207-.014,165.455,165.455,0,0,0-17.976-1.573,1.454,1.454,0,0,1-1.409-1.5,1.417,1.417,0,0,1,1.5-1.409,167.98,167.98,0,0,1,18.292,1.6,1.458,1.458,0,0,1-.2,2.9Z" fill="#a58e2d"/>
      <path d="M307.033,626.7h-.023c-6.518-.1-11.641-.105-18.1-.023h-.019a1.457,1.457,0,0,1-.018-2.914c6.477-.084,11.63-.077,18.18.022a1.458,1.458,0,0,1-.023,2.915Z" fill="#a58e2d"/>
      <path d="M304.749,658.447c-.041,0-.081,0-.123-.006-5.919-.5-10.381-1-16.3-1.5a1.457,1.457,0,1,1,.244-2.9c5.918.5,10.381,1,16.3,1.5a1.457,1.457,0,0,1-.119,2.909Z" fill="#a58e2d"/>
      <path d="M305.613,691.09a1.356,1.356,0,0,1-.155-.009l-20.405-2.172a1.457,1.457,0,0,1,.307-2.9l20.4,2.172a1.458,1.458,0,0,1-.152,2.907Z" fill="#a58e2d"/>
      <path d="M306.848,722.283a1.577,1.577,0,0,1-.245-.02l-20.3-3.444a1.458,1.458,0,1,1,.487-2.875l20.3,3.444a1.458,1.458,0,0,1-.242,2.895Z" fill="#a58e2d"/>
      <path d="M307.587,753.209c-.036,0-.07,0-.1,0-7.222-.518-14.521-.716-21.709-.576a1.512,1.512,0,0,1-1.484-1.431,1.458,1.458,0,0,1,1.43-1.485c7.27-.132,14.66.06,21.971.586a1.457,1.457,0,0,1-.1,2.91Z" fill="#a58e2d"/>
    </g>
    <polygon points="223.922 657.506 222.028 672.139 205.966 670.23 208.852 656.733 223.922 657.506" fill="#ec9d74"/>
    <path d="M247.213,566.865c-.131,14.56-3.775,28.829-7.215,42.981-4.591,18.947-8.832,38.011-11,59.334l-29.966-2.361q3.192-36.378,9.62-72.364c1.049-5.874,2.157-11.791,2.186-17.752a11.049,11.049,0,0,0-.539-3.979c-.889-2.376-3.119-3.95-5.058-5.6-6.354-5.407-16.061-14.721-18.626-22.664a37.132,37.132,0,0,1,2.3-26.074c7.783-15.362,32.706-1.924,44.876,7.987a47.388,47.388,0,0,1,7.769,11.893C245.624,547.072,247.286,557.1,247.213,566.865Z" fill="#fbb03a"/>
    <path d="M250.03,464.129c-.195.222-.39.445-.585.662a235.808,235.808,0,0,0,21.313-24.8q4.864,6.48,9.722,12.971a4.532,4.532,0,0,1,1.207,2.725,4.355,4.355,0,0,1-.87,2.118c-6.143,9.519-14.47,17.387-22.713,25.16-2.7,2.547-5.93,5.282-9.622,4.843-3.751-.439-6.408-4.237-6.768-8S242.767,472.358,250.03,464.129Z" fill="#962323"/>
    <path d="M864.109,735.379a23.547,23.547,0,0,1-4.737,4.329,57.27,57.27,0,0,0-10.6,11.966c-4.868,7.054-8.963,15.216-10.814,21.586-7.871,27.109-6.574,76.124-6.574,76.124l-33.143-3.367a243.759,243.759,0,0,1,13.977-114.136c3.309-8.744,7.259-17.5,13.788-24.179s16.149-10.99,25.288-9.022c1.822-2.026,4.183-1.909,6.471-.51,2.594,1.559,5.087,4.751,6.632,8.322a34.739,34.739,0,0,1,.874,5.32A88.707,88.707,0,0,1,864.109,735.379Z" fill="#b52c2c"/>
    <path d="M864.109,735.379a23.547,23.547,0,0,1-4.737,4.329,57.27,57.27,0,0,0-10.6,11.966,15.24,15.24,0,0,1-2.536-4.78c-2.667-7.9-2.492-16.572-.7-24.719s5.174-15.858,8.832-23.364a5.28,5.28,0,0,1,3.4-.641c.058.014.117.014.175.029a18.38,18.38,0,0,1,6.063,6.908c.146.452.277.919.394,1.385a34.739,34.739,0,0,1,.874,5.32A88.707,88.707,0,0,1,864.109,735.379Z" fill="#871a1a"/>
    <path d="M851.3,698.684c-8.105-1.747-16.581,1.464-22.953,6.867a60.041,60.041,0,0,0,36.108,15.881c.768.06,1.538.04,2.308.066a35.485,35.485,0,0,0-2.043-14.256C861.966,700.2,855.342,694.2,851.3,698.684Z" fill="#871a1a"/>
    <path d="M948.156,810.276l-11.13,22.917c-18.783,3.689-38.21-1.413-53.684-12.686-17.584-12.8-26.057-35.113-27.837-56.788s2.177-43.349,4.562-65.4c13.351-.49,26.672-1.7,39.506-2.525-2.435,17.009-4.876,34.185-3.447,51.3s7.092,34.428,18.926,46.876C926.147,805.653,932.356,807.592,948.156,810.276Z" fill="#b52c2c"/>
    <path d="M899.573,695.8c-12.834.828-28.421,1.907-41.772,2.4-.8,7.4-.511,14.732-1.39,22.059a75.734,75.734,0,0,0,8.041,1.178,60.131,60.131,0,0,0,32.656-7.04C897.807,708.181,898.689,701.978,899.573,695.8Z" fill="#871a1a"/>
    <path d="M504.829,639.72a43.281,43.281,0,0,1,19.8,4.8l13.042-73.972L454.1,555.811a43.49,43.49,0,1,0-84.951-14.98L309.4,530.295,273.845,731.946a36.088,36.088,0,0,0,29.267,41.795l192.743,33.986L510.2,726.375a43.495,43.495,0,1,1-5.369-86.655Z" fill="#891818"/>
    <path d="M510.2,726.375a43.495,43.495,0,1,1-5.369-86.655,43.281,43.281,0,0,1,19.8,4.8l13.042-73.972-29.288-5.165C489,615.117,465.465,663.245,443.609,712c-9.884,22.047-19.545,44.647-22.378,68.638a100.187,100.187,0,0,0-.706,13.807l75.33,13.282Z" fill="#601111"/>
    <path d="M283.647,430.278c5.757-6.439,4.816-17.681-1.937-23.075-6.376-5.087-15.355-4.564-23.5-5.115a50.871,50.871,0,0,1-18.9-4.605c-5.1-2.478-9.588-6.065-14.69-8.528a37.81,37.81,0,0,0-16.213-3.742c-9.256-.034-18.78,3.719-24.385,11.081-4.328,5.689-6.036,13.066-5.794,20.217.32,9.38,4.083,18.871,11.264,24.92,10.144,8.546,24.908,8.875,37.942,6.4,15.31-2.915,30.194-9.258,41.743-19.723,1.92-1.74,3.8-3.625,6.174-4.665S280.786,422.405,283.647,430.278Z" fill="#1f161c"/>
    <path d="M227.437,447.827c15.31-2.915,30.194-9.258,41.743-19.723.047-.045.092-.083.141-.128a32.753,32.753,0,0,0-4.9-1.98c-15.382-4.87-31.8-4.87-47.87-6.3-13.1-1.168-26.561-3.6-37.934-9.885a37.6,37.6,0,0,0-.39,6.7c.32,9.38,4.083,18.871,11.264,24.92C199.639,449.977,214.4,450.306,227.437,447.827Z"/>
    <path d="M383.916,569.277a2.506,2.506,0,0,1-2.218-.35,11.412,11.412,0,0,0-2.563-1.653,50.04,50.04,0,0,1-3.275-19.681,14.4,14.4,0,0,1,.589-4.049,1.026,1.026,0,0,1,.423-.633,1.045,1.045,0,0,1,.795.044,10.016,10.016,0,0,1,3.253,1.9c-.266-1.29.589-2.536,1.5-3.486a26.993,26.993,0,0,1,5.682-4.282,43.648,43.648,0,0,1,10.846-4.827,7.508,7.508,0,0,1,3.9-.272,1.339,1.339,0,0,1,.97.707,1.509,1.509,0,0,1,.009.784,11.344,11.344,0,0,1-1.416,3.747,12.62,12.62,0,0,1,6.564-2.73,4.844,4.844,0,0,1,3.578.734,4.068,4.068,0,0,1,1.305,3.458c-.163,2.786-2.15,5.116-2.88,7.807a2.237,2.237,0,0,1-.36.862,1.962,1.962,0,0,1-.723.456c-4.551,1.968-9.328,3.564-13.383,6.411C391.145,558,387.417,563.706,383.916,569.277Z" fill="#1f161c"/>
    <path d="M410.985,546.5a30.885,30.885,0,0,1,1.94-4.493c-9.426.556-18.3,6.017-27.838,6.462a37.917,37.917,0,0,1-9.224-.9l0,.023a50.04,50.04,0,0,0,3.275,19.681,11.412,11.412,0,0,1,2.563,1.653,2.506,2.506,0,0,0,2.218.35c3.5-5.571,7.229-11.277,12.6-15.051,4.055-2.847,8.832-4.443,13.383-6.411a1.962,1.962,0,0,0,.723-.456A2.237,2.237,0,0,0,410.985,546.5Z"/>
    <path d="M403.249,537.273a9.983,9.983,0,0,0,.683-1.1,13.018,13.018,0,0,0-1.514,1.051,11.344,11.344,0,0,0,1.416-3.747,1.509,1.509,0,0,0-.009-.784,1.339,1.339,0,0,0-.97-.707,7.508,7.508,0,0,0-3.9.272,40.157,40.157,0,0,0-8.144,3.3,12.335,12.335,0,0,0,1.1,2.7,6.2,6.2,0,0,0,4.357,3.258C399.107,541.893,401.578,539.608,403.249,537.273Z" fill="#493b46"/>
    <path d="M849.352,571.06a16.307,16.307,0,0,1-6.584-6.17c-.515-.878-.9-2.125-.148-2.808a2.328,2.328,0,0,1,1.62-.411,22.9,22.9,0,0,1,5.575.79c-2.657-1.429-5.739-3.692-5.148-6.656a4.855,4.855,0,0,1,3.414-3.392,14.382,14.382,0,0,1,5.006-.367c7.439.334,15.065.706,21.914,3.642a4.686,4.686,0,0,1,2.287,1.657c1.184,1.967-.668,4.538-.053,6.75a20.477,20.477,0,0,1,8.8.612,3.573,3.573,0,0,1,2.025,1.2,3.5,3.5,0,0,1,.45,1.924c.164,7.272-3.634,13.966-7.317,20.233a5.177,5.177,0,0,1-1.774,2.068c-1.3.729-2.925.225-4.3-.338C865.292,585.758,858.994,575.965,849.352,571.06Z" fill="#1f161c"/>
    <path d="M241.558,538.269a30.674,30.674,0,0,1-21.833,4.97c-20.07-2.9-30.462-10.975-33.945-15.041a34.979,34.979,0,0,1,3.133-9.809c7.783-15.362,32.706-1.924,44.876,7.987A47.388,47.388,0,0,1,241.558,538.269Z" fill="#ea9421"/>
    <path d="M879.42,590.127a5.177,5.177,0,0,0,1.774-2.068c3.656-6.221,7.414-12.865,7.308-20.073-3.275-.4-6.571.223-9.858.568a58.429,58.429,0,0,1-33.872-6.839c-.179-.012-.353-.039-.532-.044a2.328,2.328,0,0,0-1.62.411c-.753.683-.367,1.93.148,2.808a16.307,16.307,0,0,0,6.584,6.17c9.642,4.905,15.94,14.7,25.766,18.729C876.5,590.352,878.116,590.856,879.42,590.127Z"/>
    <path d="M256.263,434.841a.88.88,0,0,1-.38-.106q-2.088-1.062-4.177-2.131a.365.365,0,0,1,.31-.66c4.6,1.974,4.624,2.229,4.649,2.476a.4.4,0,0,1-.163.351A.419.419,0,0,1,256.263,434.841Z"/>
    <path d="M285.137,425.952q-2.092,9.584-4.185,19.155c-.489,2.23-1.013,4.548-2.437,6.328a5.483,5.483,0,0,1-4.385,2.224,8.472,8.472,0,0,1-2.908-.857q-3.018-1.3-6.036-2.6c-3.412,2.13-5.582,4.938-9,7.067l-11.254-7.314s9.578-12.813,9.55-13.487a10.4,10.4,0,0,1-3.409-1.294,3.948,3.948,0,0,1-1.876-2.993,3.484,3.484,0,0,1,1.613-2.94,5.018,5.018,0,0,1,3.36-.69c.691.083,1.443.35,1.1,1.245a30.205,30.205,0,0,0,18.374-13.416C278.849,415.511,286.842,418.169,285.137,425.952Z" fill="#fccead"/>
    <path d="M259.412,456.8c-.5,7.011-1.282,14.59-2.332,22.212-1.166,8.527-2.638,17.1-4.4,24.953-2.958,13.277-6.7,24.529-11.018,30.053-8.774,11.252-50.735-1.778-57.615-14.269-4.941-8.949,25.8-41.188,42.238-60.456,7.477-8.76,15.96-12.885,19.254-13.745,1.588-.422,8.555,5.451,12.563,9.212.365.335.933.422,1.166.86A2.141,2.141,0,0,1,259.412,456.8Z" fill="#b52c2c"/>
    <path d="M282.672,434.982a53.041,53.041,0,0,0,5.929,5.393,25.4,25.4,0,0,1-7.058-.056c-.629-.088-1.368-.305-1.549-.911a1.545,1.545,0,0,1,0-.706A4.674,4.674,0,0,1,282.672,434.982Z" fill="#fccead"/>
    <path d="M278.024,442.451a.891.891,0,0,1-.721.755,2.006,2.006,0,0,1-.326.035,3.03,3.03,0,0,1-.79-.138,5.733,5.733,0,0,1-2.645-1.545,3.734,3.734,0,0,1-.687-1.151,2.853,2.853,0,0,1-.12-1.734.968.968,0,0,1,.326-.567,1.072,1.072,0,0,1,1.065,0C275.723,438.742,278.024,441.8,278.024,442.451Z"/>
    <path d="M411.039,544.94l.061,25a21.232,21.232,0,0,1-.931,7.667,3.1,3.1,0,0,1-.972,1.451,3.642,3.642,0,0,1-2.833.233c-2.816-.527-5.636-1.068-8.456-1.6l-2.735,11.771-15.783.851s5.03-16.786,5.26-17.082c-1.517-.49-3.262-.049-4.7-.729a6.7,6.7,0,0,1-2.644-3.023,4.57,4.57,0,0,1-.578-1.37,3.079,3.079,0,0,1,.652-2.3c1.479-2.019,4.689-2.476,7.7-.957q1.959-7.824,3.918-15.653A45.791,45.791,0,0,1,411.039,544.94Z" fill="#fccead"/>
    <path d="M410.391,559.507q5.032.5,10.017,1.357-4.3,1.695-8.676,3.192c-.9.306-1.974.584-2.726,0-.814-.628-.733-1.869-.532-2.874C408.647,560.314,409.133,559.386,410.391,559.507Z" fill="#fccead"/>
    <path d="M409.8,569.953a5.3,5.3,0,0,1-4.07-1.937.364.364,0,1,1,.567-.458,4.571,4.571,0,0,0,3.865,1.651.371.371,0,0,1,.393.331.366.366,0,0,1-.332.395Q410.013,569.953,409.8,569.953Z"/>
    <g>
      <path d="M334.079,784.539,329.2,805.22l-4.513,7.4-21.324-6.685,6.391-2.819a7.942,7.942,0,0,0,3.3-3.659c1.846-4.246,4.734-17.179,4.734-17.179Z" fill="#fccead"/>
      <path d="M329.109,804.9c2.432.258,1.519,14.745.5,15.764s-43.011-3.329-45.6-4.316,1.807-7.2,7.475-9.421,17.062-4.375,18.274-3.809,4.7,2.736,6.8,3.357C321.352,807.891,327.9,804.77,329.109,804.9Z" fill="#191919"/>
    </g>
    <g>
      <path d="M365.072,787.361l-.96,21.227,2.319,8.352,22.338-.6-5.376-4.459a7.94,7.94,0,0,1-2.173-4.422c-.615-4.588.142-17.819.142-17.819Z" fill="#fccead"/>
      <path d="M364.287,808.3c-2.41-.418-5.492,13.767-4.788,15.027s42.282,8.555,45.045,8.314.23-7.416-4.614-11.106-15.217-8.872-16.537-8.659-5.27,1.346-7.461,1.37C370.93,813.3,365.486,808.511,364.287,808.3Z" fill="#191919"/>
    </g>
    <path d="M384.736,570.8a7.875,7.875,0,0,1-4.138-1.651.729.729,0,0,1,.8-1.218c1.312.862,2.595,1.616,3.839,1.362a.729.729,0,1,1,.287,1.429A3.949,3.949,0,0,1,384.736,570.8Z" fill="#ec9d74"/>
    <path d="M255.174,434.282a7.884,7.884,0,0,1-4.137-1.652.729.729,0,1,1,.8-1.218c1.312.862,2.592,1.611,3.838,1.362a.729.729,0,1,1,.288,1.429A3.961,3.961,0,0,1,255.174,434.282Z" fill="#ec9d74"/>
    <path d="M425.026,595.6c9.157-2.608,16.942-8.7,23.641-15.469s12.567-14.339,19.453-20.912c2.132-2.035,4.562-4.064,7.5-4.364a13.556,13.556,0,0,1,4.611.556q3.771.926,7.489,2.063c1.587.484,3.168,1,4.748,1.523a3.987,3.987,0,0,1,2.509,1.64c.458.918-.337,2.358-1.306,2.018,0,0-14.454-.515-14.748-.105-5.864,10.76-12.753,21.045-21.332,29.793s-18.921,15.941-30.522,19.895A29.342,29.342,0,0,1,425.026,595.6Z" fill="#fccead"/>
    <path d="M439.332,606.632a26.2,26.2,0,0,0-1.242-6.775,39.742,39.742,0,0,0-3.872-8.218,40.861,40.861,0,0,1-9.192,3.96,29.342,29.342,0,0,0,2.041,16.638A70.363,70.363,0,0,0,439.332,606.632Z" fill="#ec9d74"/>
    <path d="M349.335,597.893c-19.043,4.387-37.894,4.025-56.807,8.954-.951.249-2.6,1.093-2.961,2.007-1.478,3.713-3.382,12.116-2.933,16.346s1.6,11.627,5.335,9.613c3.653-1.969,2.782-16.363,2.782-16.363l56.684-3.355Z" fill="#fccead"/>
    <path d="M349.4,598.417c-.178-.144-.347-.289-.525-.429-2.906.658-5.838,1.2-8.773,1.686a55.269,55.269,0,0,0-4.324,7.237c-1.427,2.874-2.631,6.076-2.051,9.235h0l17.711-1.051Z" fill="#ec9d74"/>
    <path d="M406.633,666.819,405.409,676,387.7,808.3l-29.643-2.519,14.393-104.7-37.6,101.927-30.439-7.348c14.588-44.218,35.627-82.9,50.45-125.794q2.012-5.77,3.819-11.587Z" fill="#b9a231"/>
    <path d="M851.388,568.655q-4.338,10.116-8.681,20.228c-.8,1.868-1.571,4.141-.41,5.8a5.576,5.576,0,0,0,3.145,1.84,31.591,31.591,0,0,0,14.123.81q2.541,8.183,5.7,16.16a30.5,30.5,0,0,0,11.2-7.35s-.017-10.985-.895-11.638a12.667,12.667,0,0,0,3.826-1.4,4.282,4.282,0,0,0,2.128-3.3,3.153,3.153,0,0,0-5.84-1.747L875,571.986Z" fill="#fccead"/>
    <path d="M869,596.444c.59-1.335.761-3.18-.446-4.014-1.311-.9-3.053.123-4.3,1.116q-2.389,1.9-4.777,3.8c.031-.007.058-.007.09-.013.689,2.226,1.437,4.428,2.2,6.63a17.846,17.846,0,0,0,1.588-1.095C865.622,601.1,867.83,599.08,869,596.444Z" fill="#ec9d74"/>
    <path d="M855.807,585.083a11,11,0,0,1-2.677-.33.364.364,0,0,1-.182-.6c1.527-1.687,3.128-3.326,4.762-4.873a.364.364,0,0,1,.5.529c-1.469,1.392-2.913,2.86-4.3,4.368a10.217,10.217,0,0,0,3.928-.03.373.373,0,0,1,.43.285.366.366,0,0,1-.285.43A10.868,10.868,0,0,1,855.807,585.083Z"/>
    <path d="M855.531,589.834a.364.364,0,0,1-.112-.71,9.431,9.431,0,0,0,5.173-4.179.364.364,0,1,1,.629.367,10.166,10.166,0,0,1-5.578,4.5A.364.364,0,0,1,855.531,589.834Z"/>
    <path d="M875.471,592.256a.728.728,0,0,1-.295-1.394,15.493,15.493,0,0,0,3.908-2.475.729.729,0,1,1,.955,1.1,16.944,16.944,0,0,1-4.274,2.706A.719.719,0,0,1,875.471,592.256Z" fill="#ec9d74"/>
    <path d="M899.634,702.026l-65.876,1.791a212.851,212.851,0,0,1,2.984-26.44c3.716-23.263,8.392-46.713,18.867-67.816,1.74-3.507,3.752-7.074,7.356-8.981,4.074-.845,8.318-1.361,12.372-.433,5.393,1.229,9.977,4.971,13.151,9.5s5.086,9.824,6.587,15.15a199.225,199.225,0,0,1,5.3,27.843C902.475,668.422,903.9,684.511,899.634,702.026Z" fill="#fbb03a"/>
    <path d="M259.407,461.62h0a3.813,3.813,0,0,1,3.815-3.814h63.539a3.814,3.814,0,1,1,0,7.628H263.222A3.814,3.814,0,0,1,259.407,461.62Z" fill="#b9a231"/>
    <path d="M944.705,425.269,877.772,241.36,651.456,323.728l22.819,62.691a43.472,43.472,0,1,1,29.568,81.251l26.888,73.873,57.324-20.862a43.5,43.5,0,1,0,79.564-28.958l55.522-20.211A36.078,36.078,0,0,0,944.705,425.269Z" fill="#891818"/>
    <path d="M830.838,729.551,796.852,536.8,722.3,549.95a43.494,43.494,0,1,1-82.987,18.21c0-1.219.084-2.414.184-3.61l-79.825,14.08,13.258,75.188c-1.262-.105-2.53-.188-3.82-.188a43.509,43.509,0,1,0,18.4,82.892l12.41,70.381,201.648-35.558A36.082,36.082,0,0,0,830.838,729.551Z" fill="#ea9421"/>
    <path d="M671.277,490.227q2.8,10.911,5.013,21.953a15.967,15.967,0,0,1,.426,5.726,3.134,3.134,0,0,1-1.23,2.231,3.844,3.844,0,0,1-1.577.427q-6.364.785-12.726,1.563-.251,7.232-.5,14.472l-15.841-4.114s-.326-15.49-.125-16.335c-3.14.556-6.891.911-9.01-1.469-1.842-2.067-1.393-5.582.615-7.489s5.157-2.285,9.169-.578q3.781-9.583,8.136-18.927c1.486,3.648,6.121,6.335,9.886,5.187,3.838-1.171-1.636-6.724-.013-6.75C666.841,486.07,669.64,488.743,671.277,490.227Z" fill="#fccead"/>
    <path d="M677.944,529.934c16.042-7.007,30.533-12.149,47.835-20.394,3.574-2.6,10.918-10.4,13.052-8.3,2.172,2.132-2.346,5.731-4.845,7.461,6.082,1.729,18.243,2.076,17.76,6.622-.281,2.647-10.632.94-15.91,1.952-4.092.778-7.767,2.925-11.366,5q-12.909,7.464-26.111,14.39a86.787,86.787,0,0,1-12.648,5.732c-4.073,1.351-9.549,1.624-11.661-2.113A7.4,7.4,0,0,1,677.944,529.934Z" fill="#fccead"/>
    <path d="M644.372,512.257a.694.694,0,0,1-.12-.01,16.2,16.2,0,0,1-5.548-1.99.728.728,0,1,1,.732-1.259,14.781,14.781,0,0,0,5.053,1.811.729.729,0,0,1-.117,1.448Z" fill="#ec9d74"/>
    <path d="M663.382,508.1a.365.365,0,0,1-.03-.728l.605-.049a47.809,47.809,0,0,0,5.094-.582c-1.056-.436-3.376-1.185-4.886-1.672-.706-.228-1.368-.442-1.9-.619a.365.365,0,1,1,.231-.692c.532.178,1.191.39,1.9.617,5.5,1.775,5.777,1.98,5.837,2.365a.45.45,0,0,1-.168.391c-.638.454-3.011.676-6.045.919l-.6.048Zm6.2-1.1h0Z"/>
    <path d="M663.544,512.851a6.986,6.986,0,0,1-4.7-1.816.364.364,0,0,1,.5-.535,6.213,6.213,0,0,0,5.262,1.527.371.371,0,0,1,.424.293.364.364,0,0,1-.293.424A6.584,6.584,0,0,1,663.544,512.851Z"/>
    <path d="M281.668,408.065c.11-.189.215-.383.316-.584-.1-.083-.172-.194-.274-.278-3.34-2.663-7.4-3.775-11.669-4.325a21.379,21.379,0,0,0-.895,2.151,6.961,6.961,0,0,0-.027,5.072c1.091,2.374,4.122,3.431,6.658,2.807A9.968,9.968,0,0,0,281.668,408.065Z" fill="#493b46"/>
    <path d="M257.08,479.007c-1.166,8.527-2.638,17.1-4.4,24.953-.087-.044-.16-.073-.247-.117-4.475-2.07-8.891-4.708-11.7-8.76-5.334-7.68-3.556-18.058-1.559-27.2C245.507,470.671,251.95,474.27,257.08,479.007Z" fill="#871a1a"/>
    <path d="M406.633,666.819,405.409,676c-.394.161-.788.306-1.181.438-16.251,5.757-35.1,3.017-49.365-6.574q2.012-5.77,3.819-11.587Z" fill="#998325"/>
    <path d="M391.559,574.01c-1.735.027-3.558,1.434-3.39,3.156.156,1.6,1.783,2.581,3.26,3.2a34.59,34.59,0,0,0,5.456,1.719l1.023-4.4c.975.182,1.953.373,2.928.555.061-.067.111-.128.187-.2a11.409,11.409,0,0,1-4.68-2.186A8.82,8.82,0,0,0,391.559,574.01Z" fill="#ec9d74"/>
    <path d="M677.463,535.526a24.72,24.72,0,0,0-.117,7.329,14.218,14.218,0,0,0,8.365-.456c.761-.256,1.512-.55,2.259-.839a29.955,29.955,0,0,0-.645-3.153,58.964,58.964,0,0,0-4.264-10.687c-1.192.517-2.389,1.028-3.577,1.546A19.456,19.456,0,0,0,677.463,535.526Z" fill="#ec9d74"/>
    <path d="M652.33,483.322c2.795-.427,4.9-2.791,6.329-5.238a9.256,9.256,0,0,0,1.57-5.126,5.659,5.659,0,0,0-.283-1.368,21.372,21.372,0,0,0-11.808-.3,25.767,25.767,0,0,0-5.857,2.463C643.586,482.06,650.159,483.65,652.33,483.322Z" fill="#493b46"/>
    <path d="M681.442,567.346a37.312,37.312,0,0,1-18.612-1.589c-6.879-2.58-12.87-7.987-15.158-14.968,9.867-3.382,18.67-4.3,26.089-2.872Z" fill="#998325"/>
    <path d="M830.838,729.551,796.852,536.8l-30.063,5.305c3.957,52.381,2.884,105.127,5.751,157.625,1.385,25.383,3.935,51.544,16.025,73.9l13-2.295A36.082,36.082,0,0,0,830.838,729.551Z" fill="#cc7a17"/>
    <path d="M836.742,677.377c-.188,1.167-.363,2.343-.544,3.516,7.387-2.326,14.317-6.533,20.923-10.743,6.761-4.31,13.62-8.768,18.7-14.979a39.179,39.179,0,0,0,8.406-29.552c-2.985-1.34-6.559,2.605-9.919,6.132-10.358,10.866-22.486,19.844-34.617,28.7C838.606,666.079,837.641,671.735,836.742,677.377Z" fill="#ea9421"/>
    <path d="M875.49,555.944c-.168-.084-.323-.184-.489-.256a43.034,43.034,0,0,0-12.138-2.958c-1.015,2.391-1.577,5.011-.662,7.383A7.019,7.019,0,0,0,870.768,564,7.527,7.527,0,0,0,875.49,555.944Z" fill="#493b46"/>
    <path d="M877.772,241.36l-28.579,10.4a459.892,459.892,0,0,1,33.21,107.6c7.039,39.544,9.53,81.646,25.85,117.576l14.888-5.422a36.078,36.078,0,0,0,21.564-46.243Z" fill="#601111"/>
    <path d="M877.772,241.36,782.06,276.194c27.1,20.189,64.363,27.057,96.369,15.686a84.487,84.487,0,0,0,15.139-7.123Z" fill="#b23939"/>
    <path d="M573.867,279.82c.054-.873.062-1.741.034-2.6L427.05,261.277a88.379,88.379,0,0,0,118.576,51.309C559.543,306.531,572.879,294.971,573.867,279.82Z" fill="#edab5d"/>
    <path d="M271.274,457.979l48.363-43.67A20.178,20.178,0,0,0,323.1,410.6a22.82,22.82,0,0,0,1.7-3.369,75.263,75.263,0,0,1,4.518-8.563,1.635,1.635,0,0,1,.767-.773c1.079-.366,1.485,1.379,1.251,2.491q-.795,3.778-1.595,7.545a155.6,155.6,0,0,1,16.624-2.607c1.034-.106,3.18.366,2.511,1.156-1.048,1.238-6.455,2.975-9.852,4.015,3.965-1.807,12.726-2.567,12.774-.923.047,1.592-7.7,3.8-11.829,4.921,3.924-1.529,12.388-2.122,12.4-.54.013,1.762-8.453,2.5-12.777,3.347,2.965-.9,9.079-.681,9.045.746-.063,2.68-11.858,3.381-19.564,4.72a340.836,340.836,0,0,1-54.742,50.865,2.079,2.079,0,0,1-1.27.556,1.96,1.96,0,0,1-1.311-.851C268.293,469.171,267.033,461.8,271.274,457.979Z" fill="#fccead"/>
    <path d="M279.525,450.528l-.429.39c-.331.917-1.568,1.651-2.814,2.535l-2,1.807a20.954,20.954,0,0,0-3.968,7.061,33.266,33.266,0,0,0-1.424,4.893,14.291,14.291,0,0,0,2.861,6.122,1.96,1.96,0,0,0,1.311.851,2.079,2.079,0,0,0,1.27-.556c4.47-3.319,8.846-6.767,13.147-10.3A83.867,83.867,0,0,0,279.525,450.528Z" fill="#ec9d74"/>
    <path d="M237.638,464.657q16.594-5.2,33.357-9.853s6.16,18.182,6.5,19.038a39.016,39.016,0,0,1-24.171,14.874,25.5,25.5,0,0,1-10.376-.078,12.484,12.484,0,0,1-7.416-4.582C232.226,479.391,233.89,472.992,237.638,464.657Z" fill="#b52c2c"/>
    <path d="M679.159,526.475c-9.157,3.358-18.472,5.366-27.383,9.324a16.731,16.731,0,0,0-4.1,2.725c-2.932,2.692-2.569,8.841-.348,12.144s6.244,5.065,10.211,5.371,7.923-.668,11.717-1.869a96.233,96.233,0,0,0,17.085-7.284Z" fill="#b9a231"/>
    <path d="M659.052,503.935a1.7,1.7,0,1,1-1.7-1.7A1.7,1.7,0,0,1,659.052,503.935Z"/>
    <path d="M671.2,502.478a1.7,1.7,0,1,1-1.7-1.7A1.7,1.7,0,0,1,671.2,502.478Z"/>
    <path d="M403.2,552.618s-3.155,2.226-2.861,3.1,7.712-1.078,7.562-2.471S405.38,551.447,403.2,552.618Z"/>
    <path d="M278.666,426.006c-1.007.053-3.681.546-3.757,1.462s7.5,2.08,7.921.742S281.012,425.883,278.666,426.006Z"/>
    <path d="M661.163,522.693a16.679,16.679,0,0,1-3.267-1.632c-3.158-1.943-4.616,1.033-2.429,3.1,1.413,1.335,3.888,1.855,5.581,1.942Q661.105,524.4,661.163,522.693Z" fill="#ec9d74"/>
    <path d="M407.664,559.062a1.777,1.777,0,1,1-1.776-1.777A1.777,1.777,0,0,1,407.664,559.062Z"/>
    <path d="M259.941,445.029c-.683,1.877.2,4.947,2.8,6.7q1.219-.764,2.441-1.525l.107.045C263.42,447.286,260.58,443.272,259.941,445.029Z" fill="#ec9d74"/>
    <path d="M671.116,496.193a5.513,5.513,0,0,0-2.019-.473,5.092,5.092,0,0,0-3.961,1.121.712.712,0,0,0-.273.708.679.679,0,0,0,.407.336,4.895,4.895,0,0,0,1.767.242q1.506.007,3.008-.073c.421-.023,2.414-.006,2.656-.437C672.87,497.316,671.421,496.341,671.116,496.193Z"/>
    <path d="M652.52,498.616a5.521,5.521,0,0,1,1.748-1.116,5.1,5.1,0,0,1,4.108-.257c.244.114.5.309.492.578a.677.677,0,0,1-.272.452,4.88,4.88,0,0,1-1.587.815q-1.418.507-2.861.928c-.4.119-2.28.8-2.651.47C651.238,500.258,652.281,498.857,652.52,498.616Z"/>
    <path d="M862.509,579.921a1.7,1.7,0,1,0,1.7-1.7A1.7,1.7,0,0,0,862.509,579.921Z"/>
    <circle cx="852.064" cy="578.464" r="1.701"/>
    <path d="M850.445,572.178a5.533,5.533,0,0,1,2.019-.473,5.1,5.1,0,0,1,3.961,1.121.71.71,0,0,1,.272.708.673.673,0,0,1-.407.336,4.893,4.893,0,0,1-1.766.243q-1.508.007-3.008-.074c-.422-.022-2.415,0-2.657-.436C848.69,573.3,850.139,572.327,850.445,572.178Z"/>
    <path d="M869.041,574.6a5.5,5.5,0,0,0-1.748-1.116,5.089,5.089,0,0,0-4.108-.257c-.244.113-.5.309-.493.577a.674.674,0,0,0,.273.452,4.885,4.885,0,0,0,1.586.815q1.419.507,2.862.929c.4.118,2.279.8,2.651.47C870.323,576.244,869.279,574.843,869.041,574.6Z"/>
    <path d="M858.6,659.2c-1.064.349-2.318.684-3.673,1.02-4.285,1.02-9.576,1.924-13.045,2.463-9.823,1.516-18.831.8-28.712,1.909-4.139.467-8.366.918-12.112,2.726-4.853,2.317-12.17,9.852-13.963,7.885-3.09-3.367,6.486-10.873,10.348-15.872-3.031.087-8.8-.117-8.322-3.134.467-2.944,11-1.035,15.42-1.078,15.246-2.959,27.809-6.457,41.116-9.736,3.1-.787,6.253-1.545,9.488-2.274a7.413,7.413,0,0,1,9.285,6.019C864.94,653.381,862.681,657.87,858.6,659.2Z" fill="#fccead"/>
    <path d="M858.6,659.2c-1.064.349-2.318.684-3.673,1.02-2.216-3.659-7.2-11.573-9.27-14.837,3.1-.787,6.253-1.545,9.488-2.274a7.413,7.413,0,0,1,9.285,6.019C864.94,653.381,862.681,657.87,858.6,659.2Z" fill="#ec9d74"/>
    <path d="M860.591,662.108l-15.358-19.725c5.511-7.358,13.2-12.724,20.755-17.959,4.437-3.069,9.3-6.28,15.009-5.907a5.917,5.917,0,0,1,4.209,4.836,13.751,13.751,0,0,1-.8,6.679C880.525,642.167,871.613,651.937,860.591,662.108Z" fill="#fbb03a"/>
    <path d="M345.241,593.324a308.481,308.481,0,0,1,59.8-5.093c7.959.1,15.959.518,23.728,2.258l1.146,22.129-15.193,4.544-4.2,51.4-57.344-6.08,8.195-46.392-16.469,1Z" fill="#4d4861"/>
    <path d="M405.037,588.231a277.153,277.153,0,0,0-43.426,2.974c-.849.524,13.056,10.9,21.462,11.248a28.507,28.507,0,0,0,22.4-9.684,8.688,8.688,0,0,0,2.283-4.469C406.85,588.277,405.943,588.243,405.037,588.231Z" fill="#363249"/>
    <path d="M276.977,443.241a3.03,3.03,0,0,1-.79-.138,5.733,5.733,0,0,1-2.645-1.545,3.734,3.734,0,0,1-.687-1.151,4.971,4.971,0,0,1,2.267.55A3.985,3.985,0,0,1,276.977,443.241Z" fill="#b52c2c"/>
    <path d="M280.09,433.077a.323.323,0,0,1-.316-.256,1.534,1.534,0,0,0-1.025-1.05,3.153,3.153,0,0,0-2.085.385.322.322,0,0,1-.321-.559,3.718,3.718,0,0,1,2.6-.438,2.18,2.18,0,0,1,1.457,1.53.322.322,0,0,1-.249.381A.3.3,0,0,1,280.09,433.077Z"/>
  </g>
</svg>
